{"title":"Cop.Out.DVDRip.XviD-ARROW","uid":5663438,"size":745439823,"categoryP":"video","categoryS":"movies","magnet":"?xt=urn:btih:0798348e0fdbaaf9c6eb152e11232571be056b1e&amp;dn=Cop.Out.DVDRip.XviD-ARROW&amp;tr=udp%3A%2F%2Ftracker.openbittorrent.com%3A80&amp;tr=udp%3A%2F%2Fopen.demonii.com%3A1337&amp;tr=udp%3A%2F%2Ftracker.coppersurfer.tk%3A6969&amp;tr=udp%3A%2F%2Fexodus.desync.com%3A6969","seeders":0,"leechers":1,"uploader":"hiest","files":-1,"time":1278050505,"description":"Description\n\n\nPlot Summary \nCop Out (2010)\n\nA comedy about a veteran NYPD cop whose rare baseball card is stolen. Since it's his only hope to pay for his daughter's upcoming wedding, he recruits his partner to track down the thief, a memorabilia-obsessed gangster. \n\n\n &lt;a href=&quot;\nhttp://www.imdb.com/title/tt1385867/&quot; rel=&quot;nofollow&quot; target=&quot;_NEW&quot;&gt;\nhttp://www.imdb.com/title/tt1385867/&lt;/a&gt;\n\n\n\nDirector:\nKevin Smith\n\n\nRelease Date:\n26 February 2010 (USA) \n\n\nGenre:\nAction | Comedy | Crime\n\n\nRuntime:\n107 min\n\n \nCountry:\nUSA\n\n\nLanguage:\nEnglish\n\n\n\nVideo\n\nID : 0\nFormat : MPEG-4 Visual\nFormat profile : Advanced Simple@L5\nFormat settings, BVOP : Yes\nFormat settings, QPel : No\nFormat settings, GMC : No warppoints\nFormat settings, Matrix : Default (H.263)\nCodec ID : XVID\nCodec ID/Hint : XviD\nDuration : 1h 47mn\nBit rate : 759 Kbps\nWidth : 640 pixels\nHeight : 272 pixels\nDisplay aspect ratio : 2.35:1\nFrame rate : 23.976 fps\nResolution : 8 bits\nColorimetry : 4:2:0\nScan type : Progressive\nBits/(Pixel*Frame) : 0.182\nStream size : 583 MiB (83%)\nWriting library : XviD 1.2.1 (UTC 2008-12-04)\n\n\n\nAudio\n\nID : 1\nFormat : MPEG Audio\nFormat version : Version 1\nFormat profile : Layer 3\nMode : Joint stereo\nFormat_Settings_ModeExtension : MS Stereo\nCodec ID : 55\nCodec ID/Hint : MP3\nDuration : 1h 47mn\nBit rate mode : Variable\nBit rate : 139 Kbps\nNominal bit rate : 134 Kbps\nChannel(s) : 2 channels\nSampling rate : 48.0 KHz\nStream size : 107 MiB (15%)\nAlignment : Aligned on interleaves\nInterleave, duration : 24 ms (0.58 video frame)\nInterleave, preload duration : 132 ms\nWriting library : LAME3.90.\nEncoding settings : -m j -V 4 -q 2 -lowpass 17.6 --abr 134\n\n\nScreenshots\n &lt;a href=&quot;\nhttp://postimg.com/image/18000/17306.jpg&quot; rel=&quot;nofollow&quot; target=&quot;_NEW&quot;&gt;\nhttp://postimg.com/image/18000/17306.jpg&lt;/a&gt;\n","torrent":{"xt":"urn:btih:0798348e0fdbaaf9c6eb152e11232571be056b1e","amp;dn":"Cop.Out.DVDRip.XviD-ARROW","amp;tr":["udp%3A%2F%2Ftracker.openbittorrent.com%3A80","udp%3A%2F%2Fopen.demonii.com%3A1337","udp%3A%2F%2Ftracker.coppersurfer.tk%3A6969","udp%3A%2F%2Fexodus.desync.com%3A6969"],"infoHash":"0798348e0fdbaaf9c6eb152e11232571be056b1e","infoHashBuffer":{"type":"Buffer","data":[7,152,52,142,15,219,170,249,198,235,21,46,17,35,37,113,190,5,107,30]},"announce":[],"urlList":[]}}